<svg xmlns="http://www.w3.org/2000/svg" viewBox="0 0 172 189" preserveAspectRatio="xMidYMid meet" class="css-88gl6m" id="gefgghba"><defs id="SvgjsDefs1001"></defs><g id="SvgjsG1007" featurekey="rootContainer" transform="matrix(1,0,0,1,12,4)" fill="#111"></g><g id="SvgjsG1008" featurekey="monogramFeature-0" transform="matrix(8.547008570230947,0,0,8.547008570230947,16.931623928721134,-25.119655832251674)" fill="#fff"><path d="M2.04 20 c-0.1 0 -0.16 -0.08 -0.16 -0.18 l0 -12.84 c0 -0.1 0.06 -0.18 0.16 -0.18 l2.28 0 c0.1 0 0.18 0.08 0.18 0.18 l0 12.84 c0 0.1 -0.08 0.18 -0.18 0.18 l-2.28 0 z M3.08 8 l0 10.78 c0 0.18 0.22 0.18 0.22 0 l0 -10.78 c0 -0.14 -0.22 -0.14 -0.22 0 z M10.24 9.3 l-2.84 0 c-0.1 0 -0.18 -0.08 -0.18 -0.18 l0 -2.14 c0 -0.1 0.08 -0.18 0.18 -0.18 l8.34 0 c0.1 0 0.18 0.08 0.18 0.18 l0 2.14 c0 0.1 -0.08 0.18 -0.18 0.18 l-2.84 0 l0 10.52 c0 0.1 -0.08 0.18 -0.18 0.18 l-2.3 0 c-0.1 0 -0.18 -0.08 -0.18 -0.18 l0 -10.52 z M14.52 7.9 l-6.04 0 c-0.14 0 -0.14 0.26 0 0.26 l2.96 0 l0 10.6 c0 0.14 0.26 0.14 0.26 0 l0 -10.6 l2.82 0 c0.2 0 0.18 -0.26 0 -0.26 z"></path></g><g id="SvgjsG1009" featurekey="6sJQsk-0" transform="matrix(0.8374758754500556,0,0,0.8374758754500556,34.67263056719359,148.23198920647135)" fill="#fff"><path d="M10.01 5.888999999999999 l0 2.5781 l-3.3496 0 l0 11.533 l-2.9004 0 l0 -11.533 l-3.3691 0 l0 -2.5781 l9.6191 0 z M27.309789062500002 20 l-4.3848 -5.9961 l-1.0352 0 l0 5.9961 l-2.9297 0 l0 -14.111 l2.9297 0 l0 5.5469 l0.99609 0 l4.4238 -5.5469 l3.5742 0 l-5.4688 6.748 l5.6348 7.3633 l-3.7402 0 z M47.333940625 20 l-3.6719 -6.2109 l-0.84961 0 l0 6.2109 l-2.9297 0 l0 -14.111 l5.1172 0 c3.1934 0 4.541 1.8848 4.541 4.2188 c0 1.8945 -1.0742 3.125 -2.9883 3.5352 l4.248 6.3574 l-3.4668 0 z M42.812540625 8.32 l0 3.3691 l1.7285 0 c1.5625 0 2.1973 -0.66406 2.1973 -1.6797 c0 -1.0059 -0.63477 -1.6895 -2.1973 -1.6895 l-1.7285 0 z M65.9326453125 20.19531 c-4.1504 0 -7.2168 -2.8223 -7.2168 -7.2559 s3.0664 -7.2461 7.2168 -7.2461 c3.1445 0 5.6641 1.6113 6.6699 4.2871 l-2.7344 0.99609 c-0.625 -1.6406 -2.1191 -2.5879 -3.9355 -2.5879 c-2.4316 0 -4.2969 1.6992 -4.2969 4.5508 s1.8652 4.5605 4.2969 4.5605 c1.8164 0 3.3105 -0.95703 3.9355 -2.5977 l2.7344 0.99609 c-1.0059 2.6758 -3.5254 4.2969 -6.6699 4.2969 z M89.922109375 8.467 l-5.2344 0 l0 3.2031 l4.6387 0 l0 2.5488 l-4.6387 0 l0 3.1934 l5.2344 0 l0 2.5879 l-8.1836 0 l0 -14.111 l8.1836 0 l0 2.5781 z M107.8566796875 5.888999999999999 l0 2.5781 l-3.3496 0 l0 11.533 l-2.9004 0 l0 -11.533 l-3.3691 0 l0 -2.5781 l9.6191 0 z"></path></g></svg>